<svg version="1.1" viewBox="0.0 0.0 519.7795275590552 156.46456692913387" fill="none" stroke="none" stroke-linecap="square" stroke-miterlimit="10" xmlns:xlink="http://www.w3.org/1999/xlink" xmlns="http://www.w3.org/2000/svg"><clipPath id="p.0"><path d="m0 0l519.77954 0l0 156.46457l-519.77954 0l0 -156.46457z" clip-rule="nonzero"/></clipPath><g clip-path="url(#p.0)"><path fill="#000000" fill-opacity="0.0" d="m0 0l519.77954 0l0 156.46457l-519.77954 0z" fill-rule="evenodd"/><path fill="#000000" fill-opacity="0.0" d="m0 0l525.07086 0l0 168.40945l-525.07086 0z" fill-rule="evenodd"/><path fill="#daf5f4" d="m10.328125 63.409462l0 -12.078125q2.875 0 4.109375 -0.765625q1.234375 -0.765625 1.234375 -2.875l0 -16.46875q0 -2.15625 -1.234375 -2.90625q-1.234375 -0.765625 -4.109375 -0.765625l0 -12.078125l34.46875 0q4.796875 0 8.0625 0.953125q3.265625 0.9375 5.234375 2.703125q1.96875 1.75 2.796875 4.1875q0.828125 2.4375 0.828125 5.4375q0 5.46875 -2.640625 8.734375q-2.625 3.265625 -8.421875 3.53125l0 0.390625q2.796875 0.1875 4.640625 1.046875q1.84375 0.84375 2.890625 2.203125q1.0625 1.34375 1.5 3.25q0.4375 1.890625 0.4375 4.296875l0 1.734375q0 0.8125 0.421875 1.421875q0.4375 0.59375 1.3125 0.59375q0.9375 0 1.328125 -0.59375q0.390625 -0.609375 0.390625 -1.421875l0 -8.265625l3.75 0l0 8.265625q0 2.34375 -0.703125 4.3125q-0.703125 1.96875 -2.296875 3.4375q-1.59375 1.453125 -4.203125 2.25q-2.59375 0.796875 -6.40625 0.796875q-3.8125 0 -6.234375 -0.828125q-2.421875 -0.828125 -3.796875 -2.28125q-1.359375 -1.46875 -1.90625 -3.40625q-0.53125 -1.9375 -0.53125 -4.09375l0 -2.5q0 -2.609375 -0.296875 -4.21875q-0.28125 -1.609375 -0.953125 -2.5q-0.671875 -0.890625 -1.75 -1.1875q-1.0625 -0.296875 -2.59375 -0.296875l-0.78125 0l0 4.65625q0 1.71875 0.953125 2.484375q0.96875 0.765625 3.4375 0.765625l0 12.078125l-28.9375 0zm24.546875 -25.75l2.859375 0q2.734375 0 3.75 -1.3125q1.03125 -1.3125 1.03125 -3.65625q0 -2.734375 -1.03125 -3.9375q-1.015625 -1.203125 -3.75 -1.203125l-2.859375 0l0 10.109375zm34.10286 7.75q0 -4.78125 1.65625 -8.390625q1.671875 -3.625 4.75 -6.046875q3.078125 -2.421875 7.40625 -3.65625q4.328125 -1.234375 9.65625 -1.234375q5.34375 0 9.671875 1.234375q4.328125 1.234375 7.390625 3.65625q3.0625 2.421875 4.734375 6.046875q1.671875 3.609375 1.671875 8.390625q0 4.71875 -1.671875 8.375q-1.671875 3.640625 -4.734375 6.09375q-3.0625 2.453125 -7.390625 3.6875q-4.328125 1.25 -9.671875 1.25q-5.328125 0 -9.65625 -1.25q-4.328125 -1.234375 -7.40625 -3.6875q-3.078125 -2.453125 -4.75 -6.09375q-1.65625 -3.65625 -1.65625 -8.375zm18.53125 0q0 2.734375 0.234375 4.640625q0.25 1.90625 0.796875 3.0625q0.5625 1.15625 1.5 1.6875q0.953125 0.53125 2.40625 0.53125q1.46875 0 2.390625 -0.53125q0.9375 -0.53125 1.5 -1.6875q0.578125 -1.15625 0.796875 -3.0625q0.234375 -1.90625 0.234375 -4.640625q0 -5.46875 -1.03125 -7.65625q-1.015625 -2.203125 -3.890625 -2.203125q-1.453125 0 -2.40625 0.515625q-0.9375 0.5 -1.5 1.65625q-0.546875 1.140625 -0.796875 3.046875q-0.234375 1.90625 -0.234375 4.640625zm53.86725 -29.9375l0 12.078125l9.71875 0l0 12.0625l-9.71875 0l0 10.0q0 2.140625 0.59375 3.515625q0.609375 1.359375 2.484375 1.359375q1.046875 0 1.671875 -0.40625q0.640625 -0.40625 1.015625 -1.0625q0.375 -0.671875 0.46875 -1.53125q0.109375 -0.875 0.109375 -1.875l0 -4.859375l3.734375 0l0 5.25q0 3.15625 -0.671875 5.890625q-0.65625 2.734375 -2.265625 4.71875q-1.609375 1.984375 -4.375 3.15625q-2.765625 1.171875 -6.96875 1.171875q-4.65625 0 -7.421875 -1.140625q-2.765625 -1.140625 -4.203125 -3.125q-1.421875 -1.984375 -1.875 -4.71875q-0.4375 -2.734375 -0.4375 -5.953125l0 -10.390625l-5.109375 0l0 -10.734375q2.4375 0 4.53125 -1.046875q2.109375 -1.0625 3.625 -2.9375q1.515625 -1.875 2.34375 -4.28125q0.828125 -2.40625 0.828125 -5.140625l11.921875 0zm29.451584 16.59375q-1.671875 0 -2.859375 0.25q-1.1875 0.234375 -2.03125 0.5625q-0.84375 0.328125 -1.40625 0.734375q-0.546875 0.40625 -0.96875 0.734375l0.328125 0.328125q0.625 -0.328125 1.34375 -0.65625q0.734375 -0.328125 1.875 -0.328125q1.921875 0 3.3125 1.265625q1.40625 1.25 1.40625 3.984375q0 2.59375 -2.140625 4.171875q-2.125 1.578125 -5.703125 1.578125q-3.40625 0 -5.453125 -1.96875q-2.03125 -1.96875 -2.03125 -5.578125q0 -1.984375 1.109375 -3.953125q1.109375 -1.96875 3.4375 -3.53125q2.328125 -1.5625 5.921875 -2.5625q3.59375 -1.015625 8.671875 -1.015625q6.046875 0 9.890625 1.140625q3.84375 1.140625 5.96875 2.9375q2.140625 1.78125 2.9375 4.0625q0.796875 2.265625 0.796875 4.578125l0 12.734375q0 2.953125 0.1875 4.015625q0.203125 1.0625 1.46875 1.0625q1.015625 0 1.421875 -0.953125q0.40625 -0.96875 0.40625 -3.3125l0 -4.078125l3.703125 0l0 4.140625q0 2.921875 -0.484375 5.1875q-0.484375 2.265625 -1.859375 3.875q-1.359375 1.609375 -3.703125 2.4375q-2.34375 0.828125 -5.984375 0.828125q-3.296875 0 -5.46875 -0.703125q-2.15625 -0.6875 -3.421875 -1.71875q-1.265625 -1.046875 -1.8125 -2.171875q-0.53125 -1.125 -0.53125 -2.0l-0.515625 0q-0.203125 1.328125 -1.140625 2.53125q-0.921875 1.203125 -2.5625 2.140625q-1.640625 0.921875 -3.9375 1.484375q-2.296875 0.578125 -5.21875 0.578125q-2.796875 0 -5.09375 -0.546875q-2.296875 -0.53125 -3.90625 -1.6875q-1.609375 -1.15625 -2.515625 -2.984375q-0.890625 -1.84375 -0.890625 -4.390625q0 -3.125 1.75 -4.921875q1.765625 -1.8125 4.4375 -2.859375q2.671875 -1.0625 5.8125 -1.734375q3.140625 -0.671875 5.796875 -1.609375q2.671875 -0.953125 4.421875 -2.4375q1.765625 -1.5 1.765625 -4.234375q0 -2.4375 -1.53125 -3.921875q-1.515625 -1.484375 -5.0 -1.484375zm6.53125 14.09375q-0.703125 1.046875 -1.78125 1.6875q-1.078125 0.625 -2.078125 1.234375q-0.984375 0.59375 -1.71875 1.421875q-0.734375 0.828125 -0.734375 2.234375q0 1.078125 0.578125 1.9375q0.59375 0.859375 2.296875 0.859375q1.53125 0 2.484375 -1.1875q0.953125 -1.1875 0.953125 -3.34375l0 -4.84375zm48.671906 -30.6875l0 12.078125l9.71875 0l0 12.0625l-9.71875 0l0 10.0q0 2.140625 0.59375 3.515625q0.609375 1.359375 2.484375 1.359375q1.046875 0 1.671875 -0.40625q0.640625 -0.40625 1.015625 -1.0625q0.375 -0.671875 0.46875 -1.53125q0.109375 -0.875 0.109375 -1.875l0 -4.859375l3.734375 0l0 5.25q0 3.15625 -0.671875 5.890625q-0.65625 2.734375 -2.265625 4.71875q-1.609375 1.984375 -4.375 3.15625q-2.765625 1.171875 -6.96875 1.171875q-4.65625 0 -7.421875 -1.140625q-2.765625 -1.140625 -4.203125 -3.125q-1.421875 -1.984375 -1.875 -4.71875q-0.4375 -2.734375 -0.4375 -5.953125l0 -10.390625l-5.109375 0l0 -10.734375q2.4375 0 4.53125 -1.046875q2.109375 -1.0625 3.625 -2.9375q1.515625 -1.875 2.34375 -4.28125q0.828125 -2.40625 0.828125 -5.140625l11.921875 0zm36.123444 12.078125l0 20.265625q0 2.1875 1.0625 2.859375q1.078125 0.65625 2.734375 0.65625l0.890625 0l0 12.078125l-27.406235 0l0 -12.078125l1.265625 0q1.71875 0 2.546875 -1.078125q0.84375 -1.09375 0.84375 -2.375l0 -4.578125q0 -1.890625 -1.1875 -2.78125q-1.1875 -0.90625 -2.75 -0.90625l-0.71875 0l0 -12.0625l22.718735 0zm-18.593735 -8.015625q0 -2.796875 2.125 -4.78125q2.140625 -1.984375 6.078125 -1.984375q4.0 0 6.1718597 1.984375q2.171875 1.984375 2.171875 4.78125q0 2.859375 -2.171875 4.828125q-2.1718597 1.96875 -6.1718597 1.96875q-3.9375 0 -6.078125 -1.96875q-2.125 -1.96875 -2.125 -4.828125zm25.2556 25.875q0 -4.78125 1.65625 -8.390625q1.671875 -3.625 4.75 -6.046875q3.078125 -2.421875 7.40625 -3.65625q4.328125 -1.234375 9.65625 -1.234375q5.34375 0 9.671875 1.234375q4.328125 1.234375 7.390625 3.65625q3.0625 2.421875 4.734375 6.046875q1.671875 3.609375 1.671875 8.390625q0 4.71875 -1.671875 8.375q-1.671875 3.640625 -4.734375 6.09375q-3.0625 2.453125 -7.390625 3.6875q-4.328125 1.25 -9.671875 1.25q-5.328125 0 -9.65625 -1.25q-4.328125 -1.234375 -7.40625 -3.6875q-3.078125 -2.453125 -4.75 -6.09375q-1.65625 -3.65625 -1.65625 -8.375zm18.53125 0q0 2.734375 0.234375 4.640625q0.25 1.90625 0.796875 3.0625q0.5625 1.15625 1.5 1.6875q0.953125 0.53125 2.40625 0.53125q1.46875 0 2.390625 -0.53125q0.9375 -0.53125 1.5 -1.6875q0.578125 -1.15625 0.796875 -3.0625q0.234375 -1.90625 0.234375 -4.640625q0 -5.46875 -1.03125 -7.65625q-1.015625 -2.203125 -3.890625 -2.203125q-1.453125 0 -2.40625 0.515625q-0.9375 0.5 -1.5 1.65625q-0.546875 1.140625 -0.796875 3.046875q-0.234375 1.90625 -0.234375 4.640625zm62.414124 -2.796875q0 -1.265625 -0.3125 -2.03125q-0.296875 -0.765625 -0.78125 -1.171875q-0.46875 -0.40625 -1.0625 -0.53125q-0.578125 -0.140625 -1.125 -0.140625q-2.109375 0 -3.15625 1.234375q-1.046875 1.234375 -1.046875 3.515625l0 4.65625q0 1.71875 0.59375 2.453125q0.609375 0.734375 2.34375 0.734375l1.75 0l0 12.078125l-27.203125 0l0 -12.078125l1.921875 0q1.328125 0 2.03125 -0.859375q0.703125 -0.859375 0.703125 -2.0625l0 -6.1875q0 -1.53125 -0.90625 -2.0625q-0.890625 -0.546875 -2.03125 -0.546875l-1.71875 0l0 -12.0625l19.328125 0l-0.6875 8.9375l0.5625 0q0.71875 -5.0 4.390625 -7.703125q3.671875 -2.703125 9.984375 -2.703125q4.46875 0 7.265625 1.265625q2.796875 1.265625 4.34375 3.203125q1.546875 1.9375 2.09375 4.203125q0.5625 2.265625 0.5625 4.25l0 9.140625q0 1.71875 0.59375 2.453125q0.609375 0.734375 2.328125 0.734375l1.765625 0l0 12.078125l-22.53125 0l0 -20.796875z" fill-rule="nonzero"/><path fill="#daf5f4" d="m62.375 107.409454q0 10.421875 -10.84375 11.390625l0 0.359375q5.671875 0.125 8.921875 3.09375q3.265625 2.96875 3.265625 8.5625q0 2.34375 -0.5625 4.609375q-0.546875 2.25 -2.390625 4.015625q-1.84375 1.75 -5.3125 2.859375q-3.453125 1.109375 -9.3125 1.109375l-35.8125 0l0 -12.078125q2.875 0 4.109375 -0.765625q1.234375 -0.765625 1.234375 -2.875l0 -16.46875q0 -2.15625 -1.234375 -2.90625q-1.234375 -0.765625 -4.109375 -0.765625l0 -12.078125l38.046875 0q4.5 0 7.265625 1.015625q2.765625 1.0 4.265625 2.65625q1.5 1.65625 1.984375 3.828125q0.484375 2.15625 0.484375 4.4375zm-22.65625 23.921875q2.734375 0 3.78125 -1.046875q1.046875 -1.0625 1.046875 -3.546875q0 -2.46875 -1.046875 -3.59375q-1.046875 -1.125 -3.78125 -1.125l-4.84375 0l0 9.3125l4.84375 0zm-4.84375 -15.0625l4.921875 0q2.015625 0 2.90625 -1.28125q0.890625 -1.296875 0.890625 -3.109375q0 -1.734375 -0.890625 -3.03125q-0.890625 -1.296875 -2.90625 -1.296875l-4.921875 0l0 8.71875zm78.70218 12.46875q0 1.5625 0.890625 2.078125q0.890625 0.515625 2.03125 0.515625l1.734375 0l0 12.078125l-19.34375 0l0 -8.921875l-0.515625 0q-0.75 4.984375 -4.078125 7.5625q-3.3125 2.5625 -9.65625 2.5625q-4.453125 0 -7.265625 -1.265625q-2.796875 -1.265625 -4.328125 -3.203125q-1.515625 -1.9375 -2.09375 -4.203125q-0.5625 -2.265625 -0.5625 -4.25l0 -8.890625q0 -1.71875 -0.609375 -2.453125q-0.59375 -0.734375 -2.328125 -0.734375l-1.953125 0l0 -12.0625l22.75 0l0 20.53125q0 1.265625 0.296875 2.03125q0.296875 0.765625 0.765625 1.171875q0.46875 0.40625 1.0625 0.546875q0.609375 0.125 1.125 0.125q2.15625 0 3.171875 -1.234375q1.03125 -1.25 1.03125 -3.515625l0 -4.40625q0 -1.71875 -0.609375 -2.453125q-0.59375 -0.734375 -2.3125 -0.734375l-1.921875 0l0 -12.0625l22.71875 0l0 21.1875zm31.375595 -21.1875l0 20.265625q0 2.1875 1.0625 2.859375q1.078125 0.65625 2.734375 0.65625l0.890625 0l0 12.078125l-27.40625 0l0 -12.078125l1.265625 0q1.71875 0 2.546875 -1.078125q0.84375 -1.09375 0.84375 -2.375l0 -4.578125q0 -1.890625 -1.1875 -2.78125q-1.1875 -0.90625 -2.75 -0.90625l-0.71875 0l0 -12.0625l22.71875 0zm-18.59375 -8.015625q0 -2.796875 2.125 -4.78125q2.140625 -1.984375 6.078125 -1.984375q4.0 0 6.171875 1.984375q2.171875 1.984375 2.171875 4.78125q0 2.859375 -2.171875 4.828125q-2.171875 1.96875 -6.171875 1.96875q-3.9375 0 -6.078125 -1.96875q-2.125 -1.96875 -2.125 -4.828125zm49.318115 -4.0625l0 32.34375q0 2.1875 1.0625 2.859375q1.078125 0.65625 2.734375 0.65625l0.890625 0l0 12.078125l-27.40625 0l0 -12.078125l1.265625 0q1.71875 0 2.546875 -1.078125q0.84375 -1.09375 0.84375 -2.375l0 -16.65625q0 -1.890625 -1.1875 -2.78125q-1.1875 -0.890625 -2.75 -0.890625l-0.71875 0l0 -12.078125l22.71875 0zm52.20874 0l0 33.1875q0 1.34375 0.71875 2.015625q0.734375 0.65625 2.078125 0.65625l1.84375 0l0 12.078125l-21.859375 0l0 -5.921875l-0.53125 0q-0.515625 1.390625 -1.53125 2.671875q-1.0 1.265625 -2.46875 2.234375q-1.46875 0.953125 -3.46875 1.515625q-2.0 0.578125 -4.53125 0.578125q-7.984375 0 -12.09375 -4.828125q-4.09375 -4.84375 -4.09375 -14.1875q0 -9.34375 4.390625 -13.859375q4.40625 -4.53125 12.078125 -4.53125q2.0625 0 3.6875 0.328125q1.625 0.328125 2.953125 0.84375q1.34375 0.5 2.546875 1.140625q1.203125 0.625 2.40625 1.203125l0 -1.171875q0 -1.75 -0.609375 -2.484375q-0.59375 -0.734375 -2.328125 -0.734375l-1.71875 0l0 -10.734375l22.53125 0zm-27.40625 30.328125q0 1.765625 0.1875 3.328125q0.203125 1.5625 0.734375 2.734375q0.53125 1.171875 1.421875 1.828125q0.90625 0.640625 2.375 0.640625q1.453125 0 2.390625 -0.609375q0.953125 -0.625 1.484375 -1.734375q0.546875 -1.109375 0.734375 -2.640625q0.203125 -1.53125 0.203125 -3.25l0 -7.359375q-0.8125 -0.78125 -2.1875 -1.3125q-1.359375 -0.546875 -2.625 -0.546875q-1.46875 0 -2.375 0.734375q-0.890625 0.734375 -1.421875 1.96875q-0.53125 1.234375 -0.734375 2.875q-0.1875 1.625 -0.1875 3.34375zm53.63492 1.6875q0.125 4.859375 1.828125 6.703125q1.7187653 1.828125 4.9062653 1.828125q1.078125 0 2.09375 -0.296875q1.03125 -0.3125 1.90625 -1.015625q0.875 -0.703125 1.515625 -1.859375q0.640625 -1.15625 0.828125 -2.90625l11.84375 0q-0.640625 4.1875 -2.390625 7.03125q-1.734375 2.828125 -4.46875 4.578125q-2.734375 1.734375 -6.375 2.5q-3.625 0.765625 -8.078125 0.765625q-4.5937653 0 -8.625015 -1.171875q-4.03125 -1.171875 -7.078125 -3.5625q-3.046875 -2.40625 -4.78125 -6.03125q-1.71875 -3.625 -1.71875 -8.640625q0 -4.78125 1.625 -8.390625q1.640625 -3.625 4.578125 -6.046875q2.953125 -2.421875 6.96875 -3.65625q4.015625 -1.234375 8.843765 -1.234375q5.921875 0 10.171875 1.5625q4.265625 1.5625 6.96875 4.359375q2.703125 2.796875 3.96875 6.734375q1.28125 3.9375 1.203125 8.75l-25.73439 0zm4.8125153 -12.625q-2.28125 0 -3.3750153 1.609375q-1.078125 1.609375 -1.4375 5.328125l9.531265 0q-0.1875 -3.1875 -1.359375 -5.0625q-1.171875 -1.875 -3.359375 -1.875zm44.328552 -7.3125l-0.546875 8.9375l0.546875 0q1.140625 -5.140625 3.796875 -7.765625q2.65625 -2.640625 6.875 -2.640625q2.515625 0 4.3125 0.796875q1.8125 0.796875 2.921875 2.140625q1.109375 1.328125 1.59375 3.078125q0.484375 1.734375 0.484375 3.578125q0 1.53125 -0.453125 3.03125q-0.453125 1.5 -1.46875 2.703125q-1.0 1.203125 -2.609375 1.9375q-1.59375 0.734375 -3.9375 0.734375q-3.25 0 -5.125 -1.65625q-1.859375 -1.671875 -1.859375 -4.015625q0 -1.140625 0.25 -1.9375q0.265625 -0.796875 0.53125 -1.296875q0.28125 -0.5 0.375 -0.71875q0.109375 -0.234375 -0.21875 -0.234375q-0.6875 0 -1.484375 1.5625q-0.796875 1.5625 -0.796875 4.90625l0 7.453125q0 1.71875 0.59375 2.453125q0.609375 0.734375 2.34375 0.734375l1.953125 0l0 12.078125l-27.40625 0l0 -12.078125l1.921875 0q1.328125 0 2.03125 -0.859375q0.703125 -0.859375 0.703125 -2.0625l0 -6.1875q0 -1.53125 -0.90625 -2.0625q-0.890625 -0.546875 -2.03125 -0.546875l-1.71875 0l0 -12.0625l19.328125 0zm66.527985 18.1875l0 1.953125q0 1.71875 0.859375 2.6875q0.859375 0.953125 3.140625 0.953125l3.328125 0l0 12.078125l-31.875 0l0 -12.078125q2.875 0 4.109375 -0.765625q1.234375 -0.765625 1.234375 -2.875l0 -16.46875q0 -2.15625 -1.234375 -2.90625q-1.234375 -0.765625 -4.109375 -0.765625l0 -12.078125l35.125 0q4.8125 0 8.0625 1.140625q3.265625 1.140625 5.234375 3.171875q1.96875 2.03125 2.796875 4.9375q0.828125 2.890625 0.828125 6.375q0 3.515625 -0.828125 6.21875q-0.828125 2.6875 -2.796875 4.59375q-1.96875 1.90625 -5.234375 2.875q-3.25 0.953125 -8.0625 0.953125l-10.578125 0zm0 -7.71875l3.515625 0q2.734375 0 3.765625 -1.421875q1.046875 -1.4375 1.046875 -3.78125q0 -2.21875 -1.046875 -3.734375q-1.03125 -1.53125 -3.765625 -1.53125l-3.515625 0l0 10.46875zm50.185577 -10.46875l-0.546875 8.9375l0.546875 0q1.140625 -5.140625 3.796875 -7.765625q2.65625 -2.640625 6.875 -2.640625q2.515625 0 4.3125 0.796875q1.8125 0.796875 2.921875 2.140625q1.109375 1.328125 1.59375 3.078125q0.484375 1.734375 0.484375 3.578125q0 1.53125 -0.453125 3.03125q-0.453125 1.5 -1.46875 2.703125q-1.0 1.203125 -2.609375 1.9375q-1.59375 0.734375 -3.9375 0.734375q-3.25 0 -5.125 -1.65625q-1.859375 -1.671875 -1.859375 -4.015625q0 -1.140625 0.25 -1.9375q0.265625 -0.796875 0.53125 -1.296875q0.28125 -0.5 0.375 -0.71875q0.109375 -0.234375 -0.21875 -0.234375q-0.6875 0 -1.484375 1.5625q-0.796875 1.5625 -0.796875 4.90625l0 7.453125q0 1.71875 0.59375 2.453125q0.609375 0.734375 2.34375 0.734375l1.953125 0l0 12.078125l-27.40625 0l0 -12.078125l1.921875 0q1.328125 0 2.03125 -0.859375q0.703125 -0.859375 0.703125 -2.0625l0 -6.1875q0 -1.53125 -0.90625 -2.0625q-0.890625 -0.546875 -2.03125 -0.546875l-1.71875 0l0 -12.0625l19.328125 0zm21.997253 17.859375q0 -4.78125 1.65625 -8.390625q1.671875 -3.625 4.75 -6.046875q3.078125 -2.421875 7.40625 -3.65625q4.328125 -1.234375 9.65625 -1.234375q5.34375 0 9.671875 1.234375q4.328125 1.234375 7.390625 3.65625q3.0625 2.421875 4.734375 6.046875q1.671875 3.609375 1.671875 8.390625q0 4.71875 -1.671875 8.375q-1.671875 3.640625 -4.734375 6.09375q-3.0625 2.453125 -7.390625 3.6875q-4.328125 1.25 -9.671875 1.25q-5.328125 0 -9.65625 -1.25q-4.328125 -1.234375 -7.40625 -3.6875q-3.078125 -2.453125 -4.75 -6.09375q-1.65625 -3.65625 -1.65625 -8.375zm18.53125 0q0 2.734375 0.234375 4.640625q0.25 1.90625 0.796875 3.0625q0.5625 1.15625 1.5 1.6875q0.953125 0.53125 2.40625 0.53125q1.46875 0 2.390625 -0.53125q0.9375 -0.53125 1.5 -1.6875q0.578125 -1.15625 0.796875 -3.0625q0.234375 -1.90625 0.234375 -4.640625q0 -5.46875 -1.03125 -7.65625q-1.015625 -2.203125 -3.890625 -2.203125q-1.453125 0 -2.40625 0.515625q-0.9375 0.5 -1.5 1.65625q-0.546875 1.140625 -0.796875 3.046875q-0.234375 1.90625 -0.234375 4.640625zm32.414124 11.125q0 -1.65625 0.65625 -3.1875q0.671875 -1.53125 1.765625 -2.625q1.09375 -1.109375 2.59375 -1.78125q1.515625 -0.671875 3.25 -0.671875q1.65625 0 3.1875 0.671875q1.53125 0.671875 2.640625 1.78125q1.109375 1.09375 1.765625 2.625q0.671875 1.53125 0.671875 3.1875q0 1.734375 -0.671875 3.234375q-0.65625 1.5 -1.765625 2.609375q-1.109375 1.09375 -2.640625 1.765625q-1.53125 0.671875 -3.1875 0.671875q-1.734375 0 -3.25 -0.671875q-1.5 -0.671875 -2.59375 -1.765625q-1.09375 -1.109375 -1.765625 -2.609375q-0.65625 -1.5 -0.65625 -3.234375z" fill-rule="nonzero"/></g></svg>